<?xml version="1.0" encoding="utf-8"?>
<!-- Generator: Adobe Illustrator 24.1.2, SVG Export Plug-In . SVG Version: 6.00 Build 0)  -->
<svg version="1.1" id="Capa_1" xmlns="http://www.w3.org/2000/svg" xmlns:xlink="http://www.w3.org/1999/xlink" x="0px" y="0px"
	 viewBox="0 0 200 200" style="enable-background:new 0 0 200 200;" xml:space="preserve">
<style type="text/css">
	.st0{fill:#D82159;}
	.st1{fill:#FFFFFF;}
</style>
<g>
	<circle class="st0" cx="100" cy="100" r="100"/>
	<path class="st1" d="M59.02,148.94c1.15,0.05,1.89-0.35,2.62-1.2c10.16-11.85,20.34-23.68,30.53-35.5
		c0.34-0.39,0.69-0.77,1.11-1.23c0.49,0.7,0.86,1.24,1.22,1.77c7.98,11.61,15.97,23.21,23.91,34.84c0.65,0.95,1.31,1.35,2.48,1.34
		c8.35-0.05,16.69-0.03,25.04-0.03c0.52,0,1.04,0,1.92,0c-13.03-18.97-25.87-37.65-38.74-56.38c11.83-13.76,23.6-27.44,35.64-41.44
		c-2.5,0-4.55,0.08-6.59-0.03c-1.32-0.07-2.19,0.36-3.05,1.37c-5.58,6.57-11.21,13.09-16.83,19.62c-4.27,4.97-8.55,9.93-12.91,15
		c-0.44-0.62-0.81-1.13-1.17-1.66c-7.55-10.98-15.11-21.96-22.62-32.96c-0.65-0.95-1.3-1.37-2.49-1.37
		c-8.4,0.05-16.8,0.03-25.2,0.03c-0.47,0-0.93,0.05-1.7,0.1c12.52,18.22,24.89,36.23,37.3,54.3
		c-12.41,14.43-24.75,28.78-37.34,43.42C54.71,148.92,56.87,148.85,59.02,148.94z M64.73,59.06c-0.3-0.43-0.59-0.88-1.07-1.6
		c2.75,0,5.3,0.27,7.76-0.06c3.86-0.52,6.02,1.07,8.2,4.23c18.38,26.6,36.97,53.05,55.49,79.55c0.33,0.47,0.65,0.95,1.17,1.72
		c-3.63,0-6.92-0.14-10.19,0.05c-2.03,0.12-3.18-0.58-4.34-2.23C102.79,113.46,83.75,86.26,64.73,59.06z"/>
</g>
</svg>
