<?xml version="1.0" encoding="utf-8"?>
<!-- Generator: Adobe Illustrator 24.1.2, SVG Export Plug-In . SVG Version: 6.00 Build 0)  -->
<svg version="1.1" id="Capa_1" xmlns="http://www.w3.org/2000/svg" xmlns:xlink="http://www.w3.org/1999/xlink" x="0px" y="0px"
	 viewBox="0 0 200 200" style="enable-background:new 0 0 200 200;" xml:space="preserve">
<style type="text/css">
	.st0{fill:#D82159;}
	.st1{fill:#FFFFFF;}
</style>
<g>
	<circle class="st0" cx="99.5" cy="99.5" r="99.5"/>
	<g>
		<path class="st1" d="M99.51,152.98c-8.86-0.33-17.65-0.33-26.38-1.06c-14.56-1.21-24.87-11.69-26.28-26.2
			c-0.37-3.79-0.65-7.61-0.64-11.41c0.01-12.59,0.12-25.17,0.31-37.76c0.07-4.75,1.01-9.39,3.05-13.72
			c4.67-9.85,12.76-15.28,23.35-16.05c11.57-0.83,23.21-0.77,34.82-0.77c6.82,0,13.71,0.12,20.44,1.08
			c13.39,1.93,22.59,12.04,23.95,25.62c0.39,3.91,0.67,7.85,0.67,11.77c-0.01,12.47-0.12,24.93-0.3,37.39
			c-0.07,4.81-0.99,9.51-3.07,13.89c-4.68,9.84-12.76,15.11-23.35,16.1C117.24,152.7,108.32,152.65,99.51,152.98z M55.57,99.32
			c0.13,0,0.27,0,0.4,0c0,6.78-0.08,13.55,0.03,20.33c0.07,4.49,0.59,8.96,2.75,13.01c3.47,6.5,9.3,9.42,16.32,9.82
			c16.19,0.94,32.41,0.95,48.61,0.02c11.28-0.64,18.65-7.74,18.95-19c0.43-16.13,0.43-32.3,0-48.43c-0.3-11.27-7.65-18.6-18.97-18.9
			c-16.13-0.43-32.29-0.42-48.43,0.01c-11.16,0.3-18.24,7.68-18.91,18.83C55.83,83.11,55.8,91.22,55.57,99.32z"/>
		<path class="st1" d="M126.89,99.3c0.02,15.18-12.3,27.47-27.46,27.41c-15.14-0.06-27.31-12.25-27.32-27.37
			c-0.01-15.19,12.29-27.47,27.47-27.41C114.72,71.98,126.87,84.16,126.89,99.3z M99.39,117.11c9.8,0.05,17.83-7.86,17.9-17.63
			c0.07-9.8-7.82-17.85-17.59-17.95c-9.87-0.09-17.96,7.88-17.99,17.72C81.68,109.04,89.62,117.06,99.39,117.11z"/>
		<path class="st1" d="M134.38,70.9c-0.03,3.57-2.94,6.36-6.55,6.29c-3.5-0.07-6.23-2.91-6.2-6.45c0.03-3.58,2.93-6.37,6.54-6.3
			C131.65,64.51,134.41,67.38,134.38,70.9z"/>
	</g>
</g>
</svg>
