<?xml version="1.0" encoding="utf-8"?>
<!-- Generator: Adobe Illustrator 24.1.2, SVG Export Plug-In . SVG Version: 6.00 Build 0)  -->
<svg version="1.1" id="Capa_1" xmlns="http://www.w3.org/2000/svg" xmlns:xlink="http://www.w3.org/1999/xlink" x="0px" y="0px"
	 viewBox="0 0 53.11 27.06" style="enable-background:new 0 0 53.11 27.06;" xml:space="preserve">
<style type="text/css">
	.st0{fill:#07070C;}
	.st1{fill:#070709;}
	.st2{fill:#D82159;}
	.st3{fill:#B01070;}
	.st4{fill:url(#SVGID_1_);}
	.st5{fill:url(#SVGID_2_);}
	.st6{fill:url(#SVGID_3_);}
	.st7{fill:url(#SVGID_4_);}
	.st8{fill:#E5225E;stroke:#E5225E;stroke-linecap:round;stroke-miterlimit:10;}
</style>
<g>
	<g>
		<g>
			<path class="st2" d="M27.93,25.95c-0.95-0.03-1.9-0.03-2.85,0c-1.37-6.56-2.75-13.14-4.11-20.02c0,6.79,0,13.58,0,20.37
				c-0.95,0.12-1.89,0.27-2.84,0.45c0-8.82,0-17.64,0-26.45c1.45,0.28,2.92,0.48,4.38,0.61c1.36,6.84,2.72,13.42,4.08,20.04
				c1.31-6.62,2.62-13.21,3.93-20.04c1.47-0.13,2.93-0.34,4.39-0.61c0,8.82,0,17.64,0,26.45c-1.02-0.19-2.04-0.35-3.06-0.47
				c0-6.84,0-13.67,0-20.51C30.54,12.69,29.24,19.33,27.93,25.95z"/>
		</g>
	</g>
	<g>
		<g>
			<g>
				<g>
					<path class="st2" d="M0.43,6.42c2.05,0.1,4.11,0.18,6.16,0.26c0,0.68,0,1.36,0,2.04C5.32,8.69,4.04,8.65,2.76,8.61
						c0,1.36,0,2.71,0,4.07c1,0.01,2,0.01,3.01,0.02c0,0.68,0,1.37,0,2.05c-1,0.01-2,0.01-3.01,0.02c0,2.12,0,4.24,0,6.37
						c-0.78,0.03-1.55,0.07-2.33,0.1C0.43,16.3,0.43,11.36,0.43,6.42z"/>
					<path class="st2" d="M7.71,6.72c0.78,0.03,1.55,0.05,2.33,0.07c0,4.69,0,9.39,0,14.08c-0.78,0.02-1.55,0.05-2.33,0.07
						C7.71,16.2,7.71,11.46,7.71,6.72z"/>
					<path class="st2" d="M11.78,6.84c0.78,0.02,1.55,0.04,2.33,0.06c0,3.96,0,7.93,0,11.89c1-0.02,2-0.03,2.99-0.04
						c0,0.66,0,1.31,0,1.96c-1.77,0.03-3.55,0.07-5.32,0.12C11.78,16.16,11.78,11.5,11.78,6.84z"/>
				</g>
				<g>
					<path class="st3" d="M0.43,6.42c2.05,0.1,4.11,0.18,6.16,0.26c0,0.68,0,1.36,0,2.04C5.32,8.69,4.04,8.65,2.76,8.61
						c0,1.36,0,2.71,0,4.07c1,0.01,2,0.01,3.01,0.02c0,0.68,0,1.37,0,2.05c-1,0.01-2,0.01-3.01,0.02c0,2.12,0,4.24,0,6.37
						c-0.78,0.03-1.55,0.07-2.33,0.1C0.43,16.3,0.43,11.36,0.43,6.42z"/>
					<path class="st3" d="M7.71,6.72c0.78,0.03,1.55,0.05,2.33,0.07c0,4.69,0,9.39,0,14.08c-0.78,0.02-1.55,0.05-2.33,0.07
						C7.71,16.2,7.71,11.46,7.71,6.72z"/>
					<path class="st3" d="M11.78,6.84c0.78,0.02,1.55,0.04,2.33,0.06c0,3.96,0,7.93,0,11.89c1-0.02,2-0.03,2.99-0.04
						c0,0.66,0,1.31,0,1.96c-1.77,0.03-3.55,0.07-5.32,0.12C11.78,16.16,11.78,11.5,11.78,6.84z"/>
				</g>
			</g>
			<g>
				<g>
					<linearGradient id="SVGID_1_" gradientUnits="userSpaceOnUse" x1="36.0329" y1="13.8657" x2="44.0157" y2="13.8657">
						<stop  offset="0" style="stop-color:#9627E6"/>
						<stop  offset="1" style="stop-color:#DA2258"/>
					</linearGradient>
					<path class="st4" d="M38.45,6.91c1.05-0.02,2.1-0.05,3.16-0.08c0.8,4.64,1.61,9.33,2.41,14.07c-0.78-0.02-1.55-0.05-2.33-0.07
						c-0.14-0.93-0.28-1.86-0.42-2.79c0,0.01,0,0.03,0,0.04c-0.88-0.01-1.76-0.03-2.65-0.04c-0.14,0.9-0.28,1.8-0.42,2.7
						c-0.72-0.02-1.44-0.03-2.16-0.04C36.84,16.14,37.64,11.54,38.45,6.91z M40.99,16.18c-0.35-2.3-0.69-4.6-1.04-6.89
						c-0.01,0-0.03,0-0.04,0c-0.34,2.3-0.68,4.59-1.02,6.87C39.59,16.17,40.29,16.18,40.99,16.18z"/>
					<linearGradient id="SVGID_2_" gradientUnits="userSpaceOnUse" x1="44.5446" y1="13.8332" x2="52.6726" y2="13.8332">
						<stop  offset="0" style="stop-color:#9627E6"/>
						<stop  offset="1" style="stop-color:#DA2258"/>
					</linearGradient>
					<path class="st5" d="M47.23,13.67c-0.85-2.34-1.71-4.65-2.56-6.93c0.82-0.03,1.64-0.05,2.46-0.09
						c0.52,1.53,1.04,3.06,1.57,4.61c0.01,0,0.03,0,0.04,0c0.54-1.57,1.07-3.15,1.61-4.74c0.73-0.03,1.47-0.06,2.2-0.1
						c-0.85,2.45-1.71,4.86-2.56,7.24c0.9,2.49,1.79,5.01,2.69,7.58c-0.82-0.04-1.64-0.07-2.45-0.11c-0.56-1.72-1.13-3.42-1.69-5.11
						c-0.01,0-0.03,0-0.04,0c-0.58,1.67-1.16,3.33-1.74,4.97c-0.73-0.03-1.47-0.05-2.2-0.08C45.44,18.53,46.34,16.12,47.23,13.67z"
						/>
				</g>
				<g>
					<path class="st3" d="M38.45,6.91c1.05-0.02,2.1-0.05,3.16-0.08c0.8,4.64,1.61,9.33,2.41,14.07c-0.78-0.02-1.55-0.05-2.33-0.07
						c-0.14-0.93-0.28-1.86-0.42-2.79c0,0.01,0,0.03,0,0.04c-0.88-0.01-1.76-0.03-2.65-0.04c-0.14,0.9-0.28,1.8-0.42,2.7
						c-0.72-0.02-1.44-0.03-2.16-0.04C36.84,16.14,37.64,11.54,38.45,6.91z M40.99,16.18c-0.35-2.3-0.69-4.6-1.04-6.89
						c-0.01,0-0.03,0-0.04,0c-0.34,2.3-0.68,4.59-1.02,6.87C39.59,16.17,40.29,16.18,40.99,16.18z"/>
					<path class="st3" d="M47.23,13.67c-0.85-2.34-1.71-4.65-2.56-6.93c0.82-0.03,1.64-0.05,2.46-0.09
						c0.52,1.53,1.04,3.06,1.57,4.61c0.01,0,0.03,0,0.04,0c0.54-1.57,1.07-3.15,1.61-4.74c0.73-0.03,1.47-0.06,2.2-0.1
						c-0.85,2.45-1.71,4.86-2.56,7.24c0.9,2.49,1.79,5.01,2.69,7.58c-0.82-0.04-1.64-0.07-2.45-0.11c-0.56-1.72-1.13-3.42-1.69-5.11
						c-0.01,0-0.03,0-0.04,0c-0.58,1.67-1.16,3.33-1.74,4.97c-0.73-0.03-1.47-0.05-2.2-0.08C45.44,18.53,46.34,16.12,47.23,13.67z"
						/>
				</g>
			</g>
		</g>
	</g>
</g>
</svg>
