<?xml version="1.0" encoding="utf-8"?>
<!-- Generator: Adobe Illustrator 24.1.2, SVG Export Plug-In . SVG Version: 6.00 Build 0)  -->
<svg version="1.1" id="Capa_1" xmlns="http://www.w3.org/2000/svg" xmlns:xlink="http://www.w3.org/1999/xlink" x="0px" y="0px"
	 viewBox="0 0 19.91 28.34" style="enable-background:new 0 0 19.91 28.34;" xml:space="preserve">
<style type="text/css">
	.st0{fill:#07070C;}
	.st1{fill:#070709;}
	.st2{fill:#D82159;}
	.st3{fill:#B01070;}
	.st4{fill:url(#SVGID_1_);}
	.st5{fill:url(#SVGID_2_);}
	.st6{fill:url(#SVGID_3_);}
	.st7{fill:url(#SVGID_4_);}
	.st8{fill:#E5225E;stroke:#E5225E;stroke-linecap:round;stroke-miterlimit:10;}
</style>
<g>
	<g>
		<path class="st2" d="M11.36,26.59c-0.95-0.03-1.9-0.03-2.85,0C7.14,20.03,5.77,13.46,4.4,6.58c0,6.79,0,13.58,0,20.37
			c-0.95,0.12-1.89,0.27-2.84,0.45c0-8.82,0-17.64,0-26.45c1.45,0.28,2.92,0.48,4.38,0.61c1.36,6.84,2.72,13.42,4.08,20.04
			c1.31-6.62,2.62-13.21,3.93-20.04c1.47-0.13,2.93-0.34,4.39-0.61c0,8.82,0,17.64,0,26.45c-1.02-0.19-2.04-0.35-3.06-0.47
			c0-6.84,0-13.67,0-20.51C13.98,13.33,12.67,19.96,11.36,26.59z"/>
	</g>
</g>
</svg>
