<?xml version="1.0" encoding="utf-8"?>
<!-- Generator: Adobe Illustrator 24.1.2, SVG Export Plug-In . SVG Version: 6.00 Build 0)  -->
<svg version="1.1" id="Capa_1" xmlns="http://www.w3.org/2000/svg" xmlns:xlink="http://www.w3.org/1999/xlink" x="0px" y="0px"
	 viewBox="0 0 200 200" style="enable-background:new 0 0 200 200;" xml:space="preserve">
<style type="text/css">
	.st0{fill:#D82159;}
	.st1{fill:#FFFFFF;}
</style>
<g>
	<circle class="st0" cx="100" cy="100" r="100"/>
	<path class="st1" d="M74.28,103.89c0.02,0.2,0.13,0.34,0.31,0.41c0.17,0.06,0.35,0.12,0.52,0.13c0.3,0.03,0.61,0.02,0.91,0.02
		c3.24,0,6.49,0,9.73,0c0.82,0,1.64,0,2.45,0c0.24,0,0.48,0.02,0.72,0.05c0.29,0.04,0.5,0.26,0.51,0.55c0.02,0.33,0.02,0.67,0.02,1
		c0,13.77,0,27.54,0,41.31c0,0.27,0,0.55,0,0.82c0,0.15,0,0.3,0.01,0.45c0.02,0.43,0.17,0.58,0.63,0.6c0.3,0.01,0.61,0.01,0.91,0.01
		c4.42,0,8.85,0,13.27,0c0.79,0,1.58,0,2.36,0c0.24,0,0.48-0.02,0.72-0.04c0.18-0.02,0.35-0.19,0.36-0.36
		c0.02-0.33,0.03-0.67,0.03-1c0-6.98,0-13.95,0-20.93c0-6.98,0-13.95,0-20.93c0-0.33,0-0.67,0.01-1c0.01-0.33,0.17-0.49,0.51-0.51
		c0.3-0.02,0.61-0.02,0.91-0.02c3.91,0,7.82,0,11.73,0c0.3,0,0.61,0,0.91-0.01c0.18-0.01,0.36-0.04,0.54-0.08
		c0.12-0.02,0.23-0.09,0.29-0.2c0.19-0.35,0.36-0.7,0.37-1.11c0.01-0.42,0.04-0.85,0.05-1.27c0.01-0.31,0.03-0.6,0.16-0.89
		c0.13-0.28,0.16-0.58,0.18-0.89c0.02-0.36,0.03-0.73,0.04-1.09c0.01-0.3,0.03-0.61,0.13-0.9c0.17-0.49,0.21-1.01,0.24-1.52
		c0.03-0.45,0.04-0.92,0.15-1.35c0.19-0.77,0.27-1.55,0.31-2.34c0.01-0.27,0.02-0.55,0.1-0.81c0.21-0.71,0.27-1.43,0.28-2.16
		c0.01-0.43,0.06-0.84,0.21-1.25c0.17-0.46,0.16-0.95,0.14-1.44c-0.01-0.25-0.21-0.46-0.46-0.5c-0.15-0.03-0.3-0.04-0.45-0.05
		c-0.27-0.01-0.55-0.01-0.82-0.01c-4.64,0-9.27,0-13.91,0c-0.27,0-0.55,0-0.82,0c-0.12,0-0.24-0.01-0.36-0.03
		c-0.25-0.03-0.4-0.17-0.41-0.4c-0.01-0.21-0.02-0.42-0.02-0.64c0-3.58,0-7.16,0.01-10.74c0-0.27,0.01-0.55,0.01-0.82
		c0-0.24,0.02-0.49,0.13-0.71c0.15-0.31,0.19-0.64,0.21-0.97c0.01-0.18-0.02-0.4,0.07-0.53c0.22-0.34,0.26-0.74,0.46-1.08
		c0.21-0.37,0.44-0.72,0.71-1.04c0.56-0.66,1.23-1.15,2.03-1.47c0.48-0.19,0.94-0.42,1.47-0.45c0.12-0.01,0.24-0.04,0.35-0.1
		c0.36-0.19,0.75-0.21,1.15-0.21c1.09-0.01,2.18-0.02,3.27-0.02c2.24-0.01,4.48-0.01,6.73-0.01c0.27,0,0.55-0.01,0.82-0.04
		c0.27-0.03,0.51-0.28,0.53-0.55c0.02-0.24,0.03-0.48,0.03-0.73c0-4.46,0-8.92,0-13.37c0-0.24-0.01-0.48-0.02-0.73
		c-0.01-0.16-0.09-0.28-0.2-0.39c-0.16-0.15-0.34-0.27-0.55-0.3c-0.27-0.04-0.54-0.08-0.81-0.1c-0.58-0.03-1.15-0.02-1.73-0.05
		c-0.36-0.02-0.74-0.01-1.08-0.1c-0.74-0.19-1.5-0.22-2.26-0.22c-3-0.02-6-0.03-9-0.04c-0.85,0-1.7-0.03-2.51,0.3
		c-0.42,0.05-0.84,0.08-1.26,0.14c-0.42,0.06-0.79,0.3-1.23,0.33c-0.18,0.01-0.37,0.04-0.53,0.11c-0.68,0.26-1.41,0.36-2.06,0.7
		c-0.48,0.25-1,0.4-1.49,0.64c-0.57,0.27-1.12,0.58-1.67,0.9c-0.92,0.52-1.81,1.09-2.58,1.83c-0.33,0.31-0.68,0.59-0.99,0.92
		c-0.63,0.65-1.28,1.28-1.82,2.01c-0.27,0.37-0.56,0.72-0.79,1.11c-0.26,0.44-0.55,0.86-0.8,1.31c-0.15,0.26-0.33,0.51-0.43,0.79
		c-0.09,0.26-0.23,0.49-0.34,0.74c-0.13,0.27-0.22,0.56-0.32,0.85c-0.15,0.43-0.36,0.83-0.48,1.27c-0.09,0.32-0.17,0.64-0.3,0.95
		c-0.24,0.59-0.18,1.26-0.47,1.84c-0.05,0.1-0.05,0.24-0.06,0.36c-0.01,0.06-0.01,0.12-0.02,0.18c-0.03,0.42-0.08,0.84-0.23,1.25
		c-0.08,0.22-0.1,0.47-0.12,0.71c-0.03,0.33-0.04,0.67-0.04,1c-0.02,1.88-0.05,3.76-0.06,5.64c-0.01,2.82,0,5.64,0,8.46
		c0,0.24,0,0.49,0,0.73c0,0.12-0.02,0.24-0.04,0.36c-0.05,0.19-0.18,0.32-0.36,0.37c-0.11,0.04-0.24,0.05-0.36,0.06
		c-0.3,0.01-0.61,0.01-0.91,0.01c-3.88,0-7.76,0-11.64,0c-0.3,0-0.61,0-0.91,0.01c-0.15,0.01-0.3,0.03-0.45,0.06
		c-0.31,0.08-0.51,0.33-0.53,0.66c-0.01,0.21-0.01,0.42-0.01,0.64c0,5.06,0,10.13,0,15.19C74.26,103.41,74.27,103.65,74.28,103.89z"
		/>
</g>
</svg>
